<svg width="24" height="24" viewBox="0 0 24 24" fill="none" xmlns="http://www.w3.org/2000/svg">
<path fill-rule="evenodd" clip-rule="evenodd" d="M14.1081 2.4402C14.4408 2.52854 14.7195 2.75548 14.8734 3.06334C15.4537 4.22389 15.8868 4.92826 16.3225 5.49935C16.7635 6.07743 17.23 6.55066 17.9397 7.26033C19.5797 8.9003 20.4 11.0521 20.4 13.2C20.4 15.3479 19.5797 17.4998 17.9397 19.1397C14.6593 22.4201 9.34071 22.4201 6.06031 19.1397C4.42034 17.4998 3.60001 15.3479 3.60001 13.2C3.6 11.0521 4.42034 8.9003 6.06031 7.26033C6.40351 6.91713 6.91965 6.81446 7.36806 7.0002C7.81647 7.18594 8.10884 7.6235 8.10884 8.10886C8.10884 9.45263 8.19275 10.4765 8.58578 11.2932C8.8019 11.7423 9.13903 12.1814 9.72006 12.5732C9.85883 11.3002 10.113 9.74937 10.4565 8.27732C10.7269 7.11834 11.0633 5.96127 11.4636 4.99639C11.6638 4.51377 11.8903 4.05424 12.1474 3.65748C12.3977 3.27128 12.7193 2.87829 13.1345 2.60154C13.4209 2.41061 13.7754 2.35186 14.1081 2.4402ZM14.5456 18.1456C13.1397 19.5515 10.8603 19.5515 9.45442 18.1456C8.75148 17.4426 8.40001 16.5213 8.40001 15.6C8.40001 15.6 9.45442 16.2 11.4001 16.2C11.4001 15 12.0001 11.4 12.9001 10.8C13.5001 12 13.8426 12.3515 14.5456 13.0544C15.2485 13.7574 15.6 14.6787 15.6 15.6C15.6 16.5213 15.2485 17.4426 14.5456 18.1456Z" fill="#F9FAFB"/>
</svg>
